<svg width="32" height="32" viewBox="0 0 32 32" fill="none" xmlns="http://www.w3.org/2000/svg">
<path fill-rule="evenodd" clip-rule="evenodd" d="M32 15.7607L9.89777 3L9.89777 8.71448L-2.93949e-08 3L-1.145e-06 28.522L9.89777 22.8075L9.89777 28.522L32 15.7607ZM9.89777 19.9662L9.89777 22.8075L12.3582 21.3869L12.3582 24.26L27.079 15.7607L12.3582 7.26198L12.3582 10.1351L9.89777 8.71448L9.89777 11.5558L2.46048 7.26198L2.46048 10.8608L0.0138158 9.63776L0.0138153 21.9401L2.46047 20.7171L2.46047 24.26L9.89777 19.9662ZM9.89777 16.9982L2.46047 20.7171L2.46048 10.8608L9.89777 14.5797L9.89777 16.9982ZM9.89777 16.9982L12.3162 15.7889L9.89777 14.5797L9.89777 11.5558L12.3582 12.9765L12.3582 18.5456L9.89777 19.9662L9.89777 16.9982ZM12.3582 18.5456L17.1813 15.7607L12.3582 12.9765L12.3582 10.1351L22.1022 15.7607L12.3582 21.3869L12.3582 18.5456Z" fill="black"/>
</svg>
