<svg xmlns="http://www.w3.org/2000/svg" viewBox="0 0 284.5 35.7" xml:space="preserve"><path fill="#4285F4" d="M14.1 27.7C6.5 27.7 0 21.5 0 13.9 0 6.2 6.5 0 14.1 0c4.2 0 7.3 1.7 9.5 3.8L21 6.5c-1.6-1.5-3.8-2.7-6.9-2.7-5.6 0-10 4.5-10 10.1S8.5 24 14.1 24c3.6 0 5.7-1.5 7-2.8 1.1-1.1 1.8-2.6 2.1-4.8h-9.1v-3.8h12.8c.1.7.2 1.5.2 2.4 0 2.8-.8 6.4-3.3 8.9-2.4 2.5-5.5 3.8-9.7 3.8z"/><path fill="#EA4335" d="M46.9 18.8c0 5.1-4 8.9-8.8 8.9s-8.8-3.8-8.8-8.9c0-5.2 4-8.9 8.8-8.9s8.8 3.7 8.8 8.9zm-3.8 0c0-3.2-2.3-5.4-5-5.4s-5 2.2-5 5.4 2.3 5.4 5 5.4 5-2.2 5-5.4z"/><path fill="#FBBC04" d="M66.8 18.8c0 5.1-4 8.9-8.8 8.9-4.9 0-8.8-3.8-8.8-8.9 0-5.2 4-8.9 8.8-8.9 4.8 0 8.8 3.7 8.8 8.9zm-3.9 0c0-3.2-2.3-5.4-5-5.4s-5 2.2-5 5.4 2.3 5.4 5 5.4 5-2.2 5-5.4z"/><path fill="#4285F4" d="M86.1 10.4v16c0 6.6-3.9 9.3-8.5 9.3-4.3 0-7-2.9-7.9-5.3L73 29c.6 1.5 2.1 3.2 4.5 3.2 3 0 4.8-1.8 4.8-5.2v-1.3h-.1c-.9 1.1-2.6 2-4.7 2-4.5 0-8.6-3.9-8.6-8.9s4.1-9 8.6-9c2.1 0 3.8.9 4.7 2h.1v-1.5h3.8zm-3.5 8.4c0-3.1-2.1-5.4-4.8-5.4-2.7 0-5 2.3-5 5.4 0 3.1 2.3 5.4 5 5.4s4.8-2.3 4.8-5.4z"/><path fill="#34A853" d="M93 .9v26.2h-4V.9h4z"/><path fill="#EA4335" d="m108.5 21.7 3.1 2c-1 1.5-3.4 4-7.5 4-5.1 0-8.8-3.9-8.8-8.9 0-5.3 3.7-8.9 8.3-8.9 4.7 0 6.9 3.7 7.7 5.7l.4 1-12 4.9c.9 1.8 2.3 2.7 4.3 2.7s3.5-1 4.5-2.5zm-9.4-3.2 8-3.3c-.4-1.1-1.8-1.9-3.3-1.9-2.1 0-4.8 1.8-4.7 5.2z"/><path fill="#5F6368" d="M147.4 2.7h3.3l-6.5 24.5H141L135.7 11h-.1l-5.3 16.2H127l-6.8-24.5h3.3l5.2 19.3h.1l5.3-16h2.9l5.3 16h.1l5-19.3zm3.5 16.1c0-2.6.8-4.7 2.4-6.4 1.6-1.7 3.7-2.5 6.2-2.5s4.5.8 6.2 2.5c1.6 1.7 2.5 3.8 2.5 6.4 0 2.6-.8 4.7-2.5 6.4-1.6 1.7-3.7 2.5-6.2 2.5s-4.6-.8-6.2-2.5c-1.5-1.7-2.4-3.8-2.4-6.4zm3.2 0c0 1.8.5 3.3 1.6 4.4 1.1 1.1 2.4 1.7 3.9 1.7s2.9-.6 3.9-1.7c1.1-1.1 1.6-2.6 1.6-4.4 0-1.8-.5-3.2-1.6-4.4-1.1-1.1-2.4-1.7-3.9-1.7s-2.8.6-3.9 1.7c-1.1 1.2-1.6 2.6-1.6 4.4zm19.9 8.4h-3.2V10.4h3v2.7h.1c.3-.9 1-1.6 2-2.3 1-.6 2-.9 2.9-.9.9 0 1.7.1 2.3.4l-1 3c-.4-.2-1-.2-1.9-.2-1.2 0-2.2.5-3.1 1.4-.9 1-1.3 2.1-1.3 3.4v9.3zm23.9 0h-3.8l-5.2-7.9-2.6 2.5v5.4h-3.2V2.7h3.2v15.1l7.3-7.4h4v.1l-6.5 6.5 6.9 10v.2zm14.1-4.7c0 1.5-.6 2.7-1.9 3.7-1.3 1-2.9 1.5-4.8 1.5-1.7 0-3.2-.4-4.5-1.3-1.3-.9-2.2-2-2.7-3.5l2.8-1.2c.4 1 1 1.8 1.8 2.3.8.6 1.6.8 2.6.8s1.8-.2 2.5-.7c.7-.4 1-.9 1-1.5 0-1.1-.8-1.9-2.5-2.4l-2.9-.7c-3.3-.8-4.9-2.4-4.9-4.7 0-1.5.6-2.8 1.9-3.7 1.2-.9 2.8-1.4 4.8-1.4 1.5 0 2.8.4 4 1.1 1.2.7 2 1.7 2.5 2.8l-2.8 1.2c-.3-.7-.8-1.3-1.6-1.7-.7-.4-1.5-.6-2.4-.6-.8 0-1.6.2-2.2.6-.7.4-1 .9-1 1.5 0 1 .9 1.6 2.7 2.1l2.5.7c3.5.9 5.1 2.6 5.1 5.1zm11.4 5.2c-1.2 0-2.4-.3-3.4-.8s-1.8-1.2-2.3-2.1h-.1l.1 2.3v7.4h-3.2V10.4h3v2.3h.1c.5-.9 1.3-1.6 2.3-2.1 1-.5 2.1-.8 3.4-.8 2.2 0 4.1.9 5.6 2.6 1.6 1.8 2.4 3.9 2.4 6.3 0 2.5-.8 4.6-2.4 6.3-1.4 1.9-3.3 2.7-5.5 2.7zm-.5-2.8c1.5 0 2.8-.6 3.8-1.7s1.5-2.6 1.5-4.4c0-1.8-.5-3.2-1.5-4.4-1-1.1-2.3-1.7-3.8-1.7s-2.8.6-3.8 1.7-1.5 2.6-1.5 4.4c0 1.8.5 3.2 1.5 4.4 1 1.1 2.3 1.7 3.8 1.7zm17.6-15c2.3 0 4.2.6 5.5 1.9 1.3 1.2 2 3 2 5.1v10.3h-3v-2.3h-.1c-1.3 1.9-3 2.9-5.2 2.9-1.9 0-3.4-.5-4.6-1.6-1.2-1.1-1.9-2.5-1.9-4.1 0-1.7.7-3.1 2-4.1 1.3-1 3.1-1.5 5.3-1.5 1.9 0 3.4.3 4.6 1v-.7c0-1.1-.4-2-1.3-2.8s-1.9-1.1-3-1.1c-1.8 0-3.2.7-4.2 2.2l-2.8-1.7c1.4-2.4 3.7-3.5 6.7-3.5zM236.4 22c0 .8.3 1.5 1 2.1.7.5 1.5.8 2.4.8 1.3 0 2.5-.5 3.5-1.5s1.6-2.1 1.6-3.5c-1-.8-2.4-1.2-4.1-1.2-1.3 0-2.3.3-3.2.9-.8.8-1.2 1.5-1.2 2.4zm22.7 5.7c-2.5 0-4.6-.8-6.2-2.5-1.6-1.7-2.4-3.9-2.4-6.4 0-2.6.8-4.7 2.4-6.4 1.6-1.7 3.7-2.5 6.2-2.5 1.7 0 3.2.4 4.5 1.3s2.2 2 2.9 3.5l-2.9 1.2c-.9-2.1-2.5-3.2-4.7-3.2-1.4 0-2.7.6-3.7 1.7-1 1.2-1.5 2.6-1.5 4.3 0 1.7.5 3.2 1.5 4.3 1.1 1.2 2.3 1.7 3.7 1.7 2.3 0 3.9-1.1 4.9-3.2l2.8 1.2c-.6 1.5-1.6 2.7-2.9 3.5-1.3 1.1-2.9 1.5-4.6 1.5zm17.4 0c-2.5 0-4.5-.8-6.1-2.5-1.6-1.7-2.4-3.8-2.4-6.4 0-2.6.8-4.7 2.3-6.4 1.6-1.7 3.5-2.6 6-2.6s4.5.8 5.9 2.4c1.5 1.6 2.2 3.9 2.2 6.8v.3h-13.2c0 1.6.6 3 1.6 4 1.1 1 2.3 1.5 3.8 1.5 2 0 3.6-1 4.7-3l2.8 1.4c-.8 1.4-1.8 2.5-3.1 3.3-1.3.8-2.8 1.2-4.5 1.2zm-5-10.9h9.6c-.1-1.2-.6-2.1-1.4-2.9-.9-.8-2-1.1-3.4-1.1-1.2 0-2.2.4-3.1 1.1-.9.7-1.4 1.6-1.7 2.9z"/></svg>