<svg width="256" height="256" viewBox="0 0 256 256" fill="none" xmlns="http://www.w3.org/2000/svg">
<path fill-rule="evenodd" clip-rule="evenodd" d="M256 126.086L79.1821 24L79.1821 69.7158L-2.35159e-07 24L-9.15999e-06 228.176L79.1821 182.46L79.1821 228.176L256 126.086ZM79.1821 159.73L79.1821 182.46L98.8659 171.095L98.8659 194.08L216.632 126.086L98.8659 58.0958L98.8659 81.0811L79.1821 69.7158L79.1821 92.4464L19.6838 58.0958L19.6838 86.8863L0.110527 77.1021L0.110522 175.521L19.6838 165.737L19.6838 194.08L79.1821 159.73ZM79.1821 135.985L19.6838 165.737L19.6838 86.8863L79.1821 116.638L79.1821 135.985ZM79.1821 135.985L98.5296 126.312L79.1821 116.638L79.1821 92.4464L98.8659 103.812L98.8659 148.365L79.1821 159.73L79.1821 135.985ZM98.8659 148.365L137.45 126.086L98.8659 103.812L98.8659 81.0811L176.818 126.086L98.8659 171.095L98.8659 148.365Z" fill="black"/>
</svg>
