<svg width="157" height="35" viewBox="0 0 157 35" fill="none" xmlns="http://www.w3.org/2000/svg">
<path d="M59.0587 15.8842C59.0587 16.675 58.9609 17.3814 58.7654 18.0034C58.57 18.6254 58.3034 19.1763 57.9657 19.6561C57.637 20.1271 57.2549 20.5313 56.8195 20.869C56.3841 21.2066 55.9265 21.4821 55.4467 21.6953C54.9758 21.9086 54.496 22.0641 54.0073 22.1618C53.5274 22.2596 53.0743 22.3084 52.6478 22.3084H44.8107V18.8431H52.6478C53.092 18.8076 53.4919 18.7187 53.8473 18.5765C54.2116 18.4255 54.5226 18.2256 54.7803 17.9768C55.038 17.728 55.2379 17.4303 55.3801 17.0838C55.5222 16.7283 55.5933 16.3285 55.5933 15.8842V14.3115C55.5489 13.8761 55.4556 13.4762 55.3134 13.1119C55.1713 12.7476 54.9758 12.4366 54.727 12.179C54.4871 11.9213 54.1938 11.7214 53.8473 11.5792C53.5008 11.4281 53.1009 11.3526 52.6478 11.3526H44.8374C44.3754 11.3526 44.0244 11.4726 43.7845 11.7125C43.5446 11.9524 43.4246 12.2989 43.4246 12.7521V27H39.9593V12.7521C39.9593 11.8635 40.1192 11.1083 40.4391 10.4863C40.7678 9.86429 41.1721 9.36226 41.6519 8.98018C42.1406 8.5981 42.6693 8.32265 43.238 8.15383C43.8067 7.97612 44.3309 7.88726 44.8107 7.88726H52.6478C53.4297 7.88726 54.1316 7.98945 54.7536 8.19381C55.3756 8.38929 55.9221 8.65586 56.393 8.99351C56.8728 9.32227 57.2771 9.70435 57.6059 10.1397C57.9435 10.5751 58.219 11.0327 58.4322 11.5126C58.6544 11.9835 58.8143 12.4633 58.9121 12.952C59.0098 13.4318 59.0587 13.885 59.0587 14.3115V15.8842ZM74.1729 16.0575H66.3759C65.905 16.0575 65.5495 16.1774 65.3096 16.4174C65.0697 16.6484 64.9498 16.9905 64.9498 17.4436V27H61.4844V17.4436C61.4844 16.8483 61.5599 16.3152 61.711 15.8442C61.862 15.3733 62.062 14.9601 62.3108 14.6047C62.5684 14.2404 62.8617 13.9339 63.1904 13.6851C63.5192 13.4274 63.8613 13.2186 64.2167 13.0586C64.581 12.8987 64.9453 12.7832 65.3096 12.7121C65.6828 12.6321 66.0294 12.5921 66.3492 12.5921H74.1729V16.0575ZM91.9128 17.3637C91.9128 17.8435 91.8284 18.3633 91.6596 18.9231C91.4908 19.474 91.2153 19.9893 90.8333 20.4691C90.4601 20.9401 89.9669 21.3355 89.3538 21.6554C88.7496 21.9752 88.0121 22.1352 87.1413 22.1352H80.8904V18.8431H87.1413C87.6123 18.8431 87.9766 18.7009 88.2342 18.4166C88.4919 18.1234 88.6208 17.7635 88.6208 17.337C88.6208 16.8838 88.4742 16.5284 88.1809 16.2707C87.8966 16.0131 87.5501 15.8842 87.1413 15.8842H80.8904C80.4194 15.8842 80.0551 16.0308 79.7975 16.3241C79.5398 16.6084 79.4109 16.9638 79.4109 17.3903V22.2285C79.4109 22.6905 79.5531 23.0504 79.8374 23.3081C80.1307 23.5657 80.4905 23.6946 80.917 23.6946H87.1413V27H80.8904C80.4106 27 79.8907 26.9156 79.331 26.7468C78.7801 26.5779 78.2647 26.3069 77.7849 25.9337C77.314 25.5517 76.9185 25.0585 76.5987 24.4543C76.2788 23.8412 76.1188 23.0993 76.1188 22.2285V17.3637C76.1188 16.8838 76.2033 16.3685 76.3721 15.8176C76.5409 15.2578 76.8119 14.7424 77.1851 14.2715C77.5672 13.7917 78.0603 13.3918 78.6645 13.072C79.2776 12.7521 80.0196 12.5921 80.8904 12.5921H87.1413C87.6211 12.5921 88.1365 12.6766 88.6874 12.8454C89.2472 13.0142 89.7626 13.2897 90.2335 13.6717C90.7133 14.0449 91.1132 14.5381 91.433 15.1512C91.7529 15.7554 91.9128 16.4929 91.9128 17.3637ZM100.576 27H99.0301C98.5326 27 97.9994 26.9156 97.4308 26.7468C96.871 26.5779 96.3467 26.3025 95.858 25.9204C95.3693 25.5294 94.965 25.0274 94.6451 24.4143C94.3253 23.7923 94.1653 23.0326 94.1653 22.1352V6.50112H97.6307V22.1352C97.6307 22.5617 97.764 22.9038 98.0305 23.1615C98.2971 23.4103 98.6303 23.5347 99.0301 23.5347H100.576V27ZM118.476 22.1352C118.476 22.7305 118.401 23.2681 118.25 23.7479C118.098 24.2188 117.899 24.6365 117.65 25.0008C117.401 25.3562 117.112 25.6627 116.783 25.9204C116.455 26.1692 116.108 26.3736 115.744 26.5335C115.388 26.6934 115.024 26.8134 114.651 26.8934C114.287 26.9645 113.94 27 113.611 27H107.36C106.88 27 106.356 26.9156 105.788 26.7468C105.219 26.5779 104.69 26.3025 104.202 25.9204C103.722 25.5294 103.317 25.0274 102.989 24.4143C102.669 23.7923 102.509 23.0326 102.509 22.1352V17.4436C102.509 16.5551 102.669 15.8043 102.989 15.1912C103.317 14.5692 103.722 14.0671 104.202 13.6851C104.69 13.2941 105.219 13.0142 105.788 12.8454C106.356 12.6766 106.88 12.5921 107.36 12.5921H113.611C114.5 12.5921 115.255 12.7521 115.877 13.072C116.499 13.3918 117.001 13.7961 117.383 14.2848C117.765 14.7646 118.041 15.2889 118.21 15.8576C118.387 16.4262 118.476 16.9549 118.476 17.4436V22.1352ZM115.011 17.4703C115.011 16.9905 114.891 16.635 114.651 16.404C114.411 16.173 114.064 16.0575 113.611 16.0575H107.387C106.925 16.0575 106.574 16.1774 106.334 16.4174C106.094 16.6484 105.974 16.9905 105.974 17.4436V22.1352C105.974 22.5883 106.094 22.9349 106.334 23.1748C106.574 23.4147 106.925 23.5347 107.387 23.5347H113.611C114.082 23.5347 114.433 23.4147 114.664 23.1748C114.895 22.9349 115.011 22.5883 115.011 22.1352V17.4703ZM136.309 22.2285C136.309 22.7083 136.225 23.2281 136.056 23.7879C135.887 24.3388 135.612 24.8541 135.23 25.334C134.857 25.8049 134.363 26.2003 133.75 26.5202C133.146 26.8401 132.409 27 131.538 27H125.287C124.807 27 124.287 26.9156 123.727 26.7468C123.177 26.5779 122.661 26.3069 122.181 25.9337C121.71 25.5517 121.315 25.0585 120.995 24.4543C120.675 23.8412 120.515 23.0993 120.515 22.2285C120.515 21.7487 120.6 21.2289 120.769 20.6691C120.937 20.1093 121.208 19.5939 121.582 19.123C121.964 18.6432 122.457 18.2433 123.061 17.9234C123.674 17.6036 124.416 17.4436 125.287 17.4436H131.538V20.749H125.287C124.816 20.749 124.452 20.8957 124.194 21.1889C123.936 21.4732 123.807 21.8286 123.807 22.2551C123.807 22.7083 123.954 23.0637 124.247 23.3214C124.549 23.5702 124.905 23.6946 125.313 23.6946H131.538C132.009 23.6946 132.373 23.5524 132.631 23.2681C132.888 22.9837 133.017 22.6283 133.017 22.2018V17.3637C133.017 16.9105 132.875 16.5506 132.591 16.2841C132.315 16.0175 131.964 15.8842 131.538 15.8842H123.927V12.5921H131.538C132.018 12.5921 132.533 12.6766 133.084 12.8454C133.644 13.0142 134.159 13.2897 134.63 13.6717C135.11 14.0449 135.51 14.5381 135.829 15.1512C136.149 15.7554 136.309 16.4929 136.309 17.3637V22.2285ZM155.076 22.1352C155.076 22.7305 155 23.2681 154.849 23.7479C154.698 24.2188 154.498 24.6365 154.249 25.0008C154 25.3562 153.712 25.6627 153.383 25.9204C153.054 26.1692 152.708 26.3736 152.343 26.5335C151.988 26.6934 151.623 26.8134 151.25 26.8934C150.886 26.9645 150.539 27 150.211 27H143.96C143.364 27 142.831 26.9245 142.36 26.7734C141.889 26.6224 141.472 26.4224 141.107 26.1736C140.752 25.916 140.446 25.6227 140.188 25.294C139.939 24.9652 139.735 24.6231 139.575 24.2677C139.415 23.9034 139.295 23.5391 139.215 23.1748C139.144 22.8016 139.108 22.4551 139.108 22.1352V17.4436C139.108 16.5551 139.268 15.8043 139.588 15.1912C139.917 14.5692 140.321 14.0671 140.801 13.6851C141.29 13.2941 141.818 13.0142 142.387 12.8454C142.956 12.6766 143.48 12.5921 143.96 12.5921H150.211V16.0575H143.986C143.524 16.0575 143.173 16.1774 142.933 16.4174C142.694 16.6484 142.574 16.9905 142.574 17.4436V22.1085C142.574 22.5795 142.689 22.9349 142.92 23.1748C143.16 23.4147 143.507 23.5347 143.96 23.5347H150.211C150.682 23.5347 151.033 23.4147 151.264 23.1748C151.495 22.9349 151.61 22.5883 151.61 22.1352V6.50112H155.076V22.1352Z" fill="white"/>
<path fill-rule="evenodd" clip-rule="evenodd" d="M26.3784 18.0054L8.4126 7.63281L8.4126 12.2778L0.367188 7.63281L0.367187 28.3784L8.4126 23.7334L8.4126 28.3784L26.3784 18.0054ZM8.4126 21.4238L8.4126 23.7334L10.4126 22.5786L10.4126 24.9141L22.3784 18.0054L10.4126 11.0972L10.4126 13.4326L8.4126 12.2778L8.4126 14.5874L2.36719 11.0972L2.36719 14.0225L0.378418 13.0283L0.378417 23.0283L2.36719 22.0342L2.36719 24.9141L8.4126 21.4238ZM8.4126 19.0112L2.36719 22.0342L2.36719 14.0225L8.4126 17.0454L8.4126 19.0112ZM8.4126 19.0112L10.3784 18.0283L8.4126 17.0454L8.4126 14.5874L10.4126 15.7422L10.4126 20.269L8.4126 21.4238L8.4126 19.0112ZM10.4126 20.269L14.333 18.0054L10.4126 15.7422L10.4126 13.4326L18.333 18.0054L10.4126 22.5786L10.4126 20.269Z" fill="white"/>
</svg>
