<?xml version="1.0" encoding="UTF-8" standalone="no"?>
<!DOCTYPE svg PUBLIC "-//W3C//DTD SVG 1.1//EN" "http://www.w3.org/Graphics/SVG/1.1/DTD/svg11.dtd">
<svg width="100%" height="100%" viewBox="0 0 281 211" version="1.1" xmlns="http://www.w3.org/2000/svg" xmlns:xlink="http://www.w3.org/1999/xlink" xml:space="preserve" xmlns:serif="http://www.serif.com/" style="fill-rule:evenodd;clip-rule:evenodd;stroke-linejoin:round;stroke-miterlimit:2;">
    <g transform="matrix(1,0,0,1,-673.081,-459.17)">
        <g transform="matrix(0.848418,0,0,0.8796,160.98,424.686)">
            <g transform="matrix(1.17866,0,0,1.13688,485.728,-62.1127)">
                <g transform="matrix(-0.914031,6.81054e-16,-6.46315e-16,-0.819476,180,501.005)">
                    <rect x="43.762" y="246.312" width="43.762" height="158.638" style="fill:white;"/>
                </g>
                <g transform="matrix(-0.914031,5.47587e-16,-2.66637e-16,-0.149321,180,185.898)">
                    <rect x="43.762" y="246.312" width="43.762" height="158.638" style="fill:white;"/>
                </g>
                <g transform="matrix(-0.914031,5.47587e-16,-2.66637e-16,-0.149321,420.043,185.898)">
                    <rect x="43.762" y="246.312" width="43.762" height="158.638" style="fill:white;"/>
                </g>
                <g transform="matrix(-3.63974e-16,-0.914031,0.819476,-2.9662e-16,-101.847,169.119)">
                    <rect x="43.762" y="246.312" width="43.762" height="158.638" style="fill:white;"/>
                </g>
                <g transform="matrix(-3.63976e-16,-0.914031,0.819618,-2.96675e-16,48.1388,169.119)">
                    <rect x="43.762" y="246.312" width="43.762" height="158.638" style="fill:white;"/>
                </g>
                <g transform="matrix(-0.914031,6.81054e-16,-6.46315e-16,-0.819476,260.007,501.005)">
                    <rect x="43.762" y="246.312" width="43.762" height="158.638" style="fill:white;"/>
                </g>
                <g transform="matrix(-0.914031,6.81054e-16,-6.46315e-16,-0.819476,340.025,501.005)">
                    <rect x="43.762" y="246.312" width="43.762" height="158.638" style="fill:white;"/>
                </g>
                <g transform="matrix(-0.914031,6.81054e-16,-6.46315e-16,-0.819476,420.043,501.005)">
                    <rect x="43.762" y="246.312" width="43.762" height="158.638" style="fill:white;"/>
                </g>
            </g>
        </g>
    </g>
</svg>
