<svg xmlns="http://www.w3.org/2000/svg" width="33.034" height="25.627" viewBox="0 0 33.034 25.627">
  <g id="Group_131" data-name="Group 131" transform="translate(-775.532 -1096.489)">
    <path id="Path_104" data-name="Path 104" d="M27.386-4.2H2.7v-8.024a3.11,3.11,0,0,1,3.086-3.086H24.3a3.11,3.11,0,0,1,3.086,3.086Z" transform="translate(777.008 1112.272)" fill="none" stroke="#fff" stroke-linecap="round" stroke-linejoin="round" stroke-width="0.937"/>
    <path id="Path_105" data-name="Path 105" d="M.468,4.945V-3.7A4.976,4.976,0,0,1,5.406-8.634H27.628A4.976,4.976,0,0,1,32.566-3.7V4.945" transform="translate(775.532 1116.702)" fill="none" stroke="#fff" stroke-linecap="round" stroke-linejoin="round" stroke-width="0.937"/>
    <path id="Path_106" data-name="Path 106" d="M.468.516V-.1A1.866,1.866,0,0,1,2.32-1.953H30.714A1.866,1.866,0,0,1,32.566-.1V.516" transform="translate(775.532 1121.131)" fill="none" stroke="#fff" stroke-linecap="round" stroke-linejoin="round" stroke-width="0.937"/>
    <path id="Path_107" data-name="Path 107" d="M3.438-7.158V-8.392a2.488,2.488,0,0,1,2.469-2.469h6.173a2.488,2.488,0,0,1,2.469,2.469v1.235" transform="translate(777.5 1115.225)" fill="none" stroke="#fff" stroke-linecap="round" stroke-linejoin="round" stroke-width="0.937"/>
    <path id="Path_108" data-name="Path 108" d="M10.119-7.158V-8.392a2.488,2.488,0,0,1,2.469-2.469H18.76a2.487,2.487,0,0,1,2.469,2.469v1.235" transform="translate(781.93 1115.225)" fill="none" stroke="#fff" stroke-linecap="round" stroke-linejoin="round" stroke-width="0.937"/>
  </g>
</svg>
