<svg width="85" height="56" viewBox="0 0 85 56" fill="none" xmlns="http://www.w3.org/2000/svg">
<g id="Mail">
<path id="Vector" d="M0.636719 0.792969V55.6068H84.966V0.792969H0.636719ZM49.9694 34.3137C48.072 36.2112 45.542 37.2653 42.8013 37.2653C40.0606 37.2653 37.5308 36.2112 35.6334 34.3137L6.32897 5.00942H79.0629L49.9694 34.3137ZM26.5679 28.1999L4.85318 49.9146V6.4852L26.5679 28.1999ZM28.0437 29.6757L34.1576 35.7895C36.4767 38.1086 39.639 39.3735 42.8013 39.3735C46.1745 39.3735 49.1261 38.1086 51.4452 35.7895L57.559 29.6757L79.2737 51.3904H6.32897L28.0437 29.6757ZM59.0347 28.1999L80.7495 6.4852V50.1254L59.0347 28.1999Z" fill="white" fill-opacity="0.29"/>
</g>
</svg>
