<svg id="Component_5_1" data-name="Component 5 – 1" xmlns="http://www.w3.org/2000/svg" width="30.23" height="24.184" viewBox="0 0 30.23 24.184">
  <path id="Path_109" data-name="Path 109" d="M25.192-14.542a4.029,4.029,0,0,0-4.031,4.031H19.146V-8.5h6.046v-2.015H23.176a1.913,1.913,0,0,1,2.015-2.015,1.913,1.913,0,0,1,2.015,2.015v6.046H0V-2.45H1.2L2.74,5.2v.031A3.085,3.085,0,0,0,4.755,7.469L4.031,9.642H6.046l.661-2.015H23.523l.661,2.015H26.2l-.724-2.173a3.055,3.055,0,0,0,2.11-2.236V5.2L29.034-2.45h1.2V-4.466H29.222v-6.046A4.028,4.028,0,0,0,25.192-14.542ZM3.244-2.45H27.018L25.6,4.824a1.032,1.032,0,0,1-1.008.787H5.731a1.006,1.006,0,0,1-1.008-.819Z" transform="translate(0 14.542)" fill="#fff"/>
</svg>
