<?xml version="1.0" standalone="no"?>
<!DOCTYPE svg PUBLIC "-//W3C//DTD SVG 20010904//EN"
 "http://www.w3.org/TR/2001/REC-SVG-20010904/DTD/svg10.dtd">
<svg version="1.0" xmlns="http://www.w3.org/2000/svg"
 width="1320.000000pt" height="1320.000000pt" viewBox="0 0 1320.000000 1320.000000"
 preserveAspectRatio="xMidYMid meet">
<metadata>
Created by potrace 1.14, written by Peter Selinger 2001-2017
</metadata>
<g transform="translate(0.000000,1320.000000) scale(0.100000,-0.100000)"
fill="#000000" stroke="none">
<path d="M6627 12294 c-1 -1 -92 -3 -202 -5 -110 -2 -208 -6 -217 -11 -10 -5
-19 -4 -23 2 -4 6 -10 8 -15 5 -4 -3 -48 -7 -97 -10 -48 -3 -108 -7 -133 -10
-25 -2 -79 -7 -120 -11 -41 -3 -86 -8 -100 -9 -14 -2 -52 -6 -84 -10 -33 -4
-69 -9 -80 -11 -12 -2 -41 -7 -66 -9 -25 -3 -56 -8 -70 -10 -28 -6 -44 -9
-110 -21 -25 -4 -47 -8 -50 -9 -3 -1 -25 -5 -50 -9 -25 -5 -52 -10 -60 -11 -8
-2 -35 -8 -60 -15 -25 -7 -53 -14 -63 -15 -46 -9 -243 -69 -332 -101 -55 -19
-104 -37 -110 -38 -67 -19 -332 -156 -415 -214 -154 -109 -252 -224 -297 -347
-23 -64 -25 -74 -28 -192 -1 -61 -6 -116 -9 -122 -4 -6 -4 -11 1 -11 4 0 8
-171 8 -380 0 -209 -4 -380 -8 -380 -5 0 -5 -5 -1 -12 10 -16 11 -308 1 -308
-5 0 -5 -5 -1 -12 10 -16 11 -308 1 -308 -5 0 -5 -5 -1 -12 8 -13 12 -308 4
-308 -3 0 -6 -9 -6 -20 0 -11 3 -20 6 -20 4 0 3 -279 -1 -405 -1 -42 11 -425
14 -445 3 -14 8 -52 12 -85 4 -33 9 -63 12 -68 2 -4 6 -20 9 -35 2 -15 8 -36
13 -47 5 -11 19 -45 32 -75 37 -87 86 -143 179 -204 47 -31 90 -59 95 -63 6
-5 27 -16 47 -27 21 -10 46 -27 57 -37 11 -11 24 -19 28 -19 4 0 37 -19 73
-43 36 -23 88 -55 115 -71 28 -16 52 -32 55 -36 3 -3 28 -19 55 -35 28 -16 87
-52 132 -82 45 -29 87 -53 92 -53 6 0 11 -4 11 -10 0 -5 5 -10 10 -10 6 0 16
-5 23 -10 24 -21 138 -90 147 -90 6 0 10 -4 10 -10 0 -5 5 -10 10 -10 6 0 44
-22 86 -50 41 -27 78 -50 80 -50 3 0 32 -18 65 -40 33 -22 65 -40 70 -40 5 0
9 -4 9 -10 0 -5 4 -10 9 -10 5 0 37 -18 70 -40 33 -22 65 -40 71 -40 5 0 10
-4 10 -9 0 -5 8 -11 18 -15 9 -3 36 -18 59 -33 129 -84 226 -143 234 -143 5 0
9 -4 9 -10 0 -5 6 -10 13 -10 7 0 22 -8 33 -18 10 -9 30 -23 44 -30 30 -15
240 -147 257 -162 7 -5 15 -10 18 -10 3 0 33 -18 65 -40 32 -22 61 -40 64 -40
2 0 38 -21 78 -47 41 -27 83 -53 93 -60 56 -33 474 -295 573 -358 26 -17 126
-79 222 -139 325 -203 424 -295 458 -427 6 -21 9 -833 8 -2045 l-1 -2009 -22
-47 c-23 -51 -108 -140 -157 -165 -17 -9 -33 -19 -36 -23 -7 -10 -139 -70
-154 -70 -6 0 -16 -4 -21 -8 -6 -5 -37 -17 -70 -26 -33 -10 -71 -21 -85 -26
-14 -5 -45 -12 -70 -16 -51 -9 -59 -11 -62 -14 -2 -1 -14 -3 -28 -5 -14 -2
-43 -6 -65 -9 -22 -4 -56 -9 -75 -12 -153 -23 -652 -23 -780 0 -14 2 -43 7
-65 10 -69 10 -110 18 -160 32 -5 2 -19 5 -30 8 -11 3 -45 13 -75 21 -30 8
-105 40 -167 71 -127 64 -206 133 -250 217 l-27 52 -2 1730 c-1 952 -2 1732
-3 1735 0 3 -346 6 -768 5 l-768 0 -1 -107 c-1 -58 -4 -113 -7 -122 -4 -9 -3
-16 1 -16 9 0 8 -323 -1 -338 -4 -6 -4 -13 0 -15 10 -6 9 -420 -1 -435 -4 -7
-4 -12 1 -12 10 0 9 -452 -1 -468 -4 -7 -4 -12 1 -12 10 0 9 -452 -1 -468 -4
-7 -4 -12 1 -12 10 0 9 -532 -1 -548 -4 -7 -4 -12 1 -12 4 0 8 -118 7 -263 0
-202 3 -274 14 -312 8 -27 15 -55 16 -61 7 -48 127 -203 209 -270 40 -33 116
-84 125 -84 6 0 12 -4 14 -9 8 -23 374 -191 445 -204 10 -2 25 -7 33 -10 18
-7 151 -46 165 -48 6 -1 30 -8 55 -15 25 -7 56 -15 70 -18 35 -7 68 -14 120
-25 44 -10 93 -19 155 -27 16 -2 37 -6 45 -9 8 -2 42 -7 74 -11 33 -3 69 -8
80 -10 12 -3 41 -7 65 -9 25 -3 63 -7 85 -9 386 -45 1088 -54 1571 -22 110 8
211 16 235 21 14 2 50 6 80 9 30 3 66 8 80 10 14 2 49 7 79 10 29 4 56 8 60
10 3 2 29 6 56 10 49 6 75 10 125 21 14 3 50 10 80 16 74 14 73 13 88 22 6 5
12 6 12 4 0 -5 66 11 180 43 41 11 80 22 85 24 116 32 360 129 465 184 97 51
155 85 158 94 2 4 8 8 13 8 14 0 98 66 159 125 56 54 84 87 110 134 8 14 19
29 23 32 5 3 10 12 11 20 2 8 6 22 10 31 4 9 8 22 10 30 1 7 4 18 8 23 3 6 9
28 12 50 7 41 9 3537 2 3610 -3 40 -13 88 -23 115 -3 8 -7 21 -9 28 -4 22 -65
135 -92 172 -56 76 -145 164 -225 222 -28 21 -56 42 -62 46 -5 4 -80 51 -165
104 -85 53 -160 101 -167 107 -7 6 -14 11 -17 11 -2 0 -40 22 -83 50 -43 27
-100 63 -128 80 -27 17 -81 51 -120 76 -38 24 -77 47 -85 51 -8 4 -17 9 -20
13 -3 3 -36 25 -75 48 -38 24 -79 48 -90 55 -10 7 -52 33 -93 60 -40 26 -75
47 -78 47 -2 0 -44 25 -92 57 -48 31 -107 69 -132 84 -25 16 -51 33 -57 39 -7
6 -13 8 -13 5 0 -3 -6 -1 -12 5 -25 20 -139 90 -148 90 -6 0 -10 5 -10 10 0 6
-7 10 -15 10 -8 0 -15 3 -15 8 0 7 -9 13 -66 42 -16 8 -38 23 -48 32 -11 10
-26 18 -33 18 -7 0 -13 5 -13 10 0 6 -5 10 -10 10 -6 0 -41 19 -78 43 -37 24
-92 59 -122 77 -30 19 -57 37 -60 40 -7 7 -42 29 -60 37 -8 3 -41 24 -72 45
-31 21 -59 38 -62 38 -3 0 -45 26 -93 57 -48 32 -96 62 -105 68 -9 5 -38 23
-65 39 -26 16 -78 49 -115 73 -37 23 -71 43 -77 43 -5 0 -11 4 -13 8 -1 4 -50
37 -108 72 -58 35 -106 68 -108 72 -2 4 -8 8 -14 8 -5 0 -29 14 -53 30 -24 17
-48 30 -54 30 -6 0 -11 5 -11 10 0 6 -6 10 -13 10 -7 0 -23 9 -35 20 -12 11
-24 20 -29 20 -4 0 -23 11 -42 24 -20 12 -74 48 -121 78 -47 31 -99 69 -116
84 -32 30 -86 108 -93 134 -22 84 -24 253 -25 1755 l-1 1630 29 50 c32 57 125
148 167 166 16 6 29 15 29 20 0 5 5 9 10 9 6 0 39 13 73 29 34 16 67 30 72 31
6 2 35 12 65 22 30 11 62 21 70 23 8 2 15 4 15 5 0 1 9 3 20 5 11 1 43 8 70
15 28 6 64 14 80 17 17 2 41 6 55 9 14 3 48 7 75 9 28 3 61 7 75 11 31 8 610
15 622 8 5 -3 43 -7 86 -10 42 -2 88 -6 102 -9 14 -3 45 -8 70 -11 68 -8 238
-52 287 -74 24 -10 43 -17 43 -15 0 3 15 -4 33 -15 17 -11 41 -24 53 -29 37
-16 135 -113 155 -154 48 -93 46 -35 47 -1653 0 -841 1 -1545 1 -1564 l1 -35
766 2 c422 1 768 4 771 7 5 5 4 2577 -1 2616 -4 36 -16 81 -28 110 -23 54 -43
95 -49 100 -3 3 -12 16 -19 29 -21 40 -111 136 -189 201 -65 53 -290 198 -321
205 -3 1 -45 21 -95 44 -137 65 -173 81 -183 81 -5 0 -31 9 -58 19 -70 28 -87
34 -102 37 -8 1 -21 6 -30 10 -20 8 -29 11 -60 18 -12 3 -26 7 -30 10 -5 3
-19 7 -33 10 -13 3 -58 15 -99 26 -41 11 -86 22 -99 25 -14 2 -47 9 -75 15
-77 16 -94 19 -191 34 -129 21 -164 26 -290 40 -164 19 -243 24 -485 31 -91 3
-187 7 -213 8 -26 1 -49 2 -50 1z"/>
</g>
</svg>
