<svg xmlns="http://www.w3.org/2000/svg" width="50" height="50" viewBox="0 0 50 50">
  <g id="Group_235" data-name="Group 235" transform="translate(-815 -5488)">
    <rect id="Rectangle_79" data-name="Rectangle 79" width="50" height="50" rx="8" transform="translate(815 5488)" fill="#84287d"/>
    <path id="_9055615_bxs_quote_alt_right_icon" data-name="9055615_bxs_quote_alt_right_icon" d="M25.948,9.467l-.03-.2-.031.007a5.531,5.531,0,1,0-4.5,6.453,4.3,4.3,0,0,1-.3.816,5.057,5.057,0,0,1-.563,1.013,5.981,5.981,0,0,1-.721.885,8.16,8.16,0,0,1-.831.725,5.1,5.1,0,0,1-.857.556,4.556,4.556,0,0,1-.78.42l-.647.266-.569.236.581,2.328.717-.173c.229-.058.509-.125.827-.205a6.512,6.512,0,0,0,1.059-.375,7.51,7.51,0,0,0,1.234-.561,11.273,11.273,0,0,0,1.31-.831,9.4,9.4,0,0,0,1.26-1.133A8.415,8.415,0,0,0,24.192,18.3a9.75,9.75,0,0,0,.843-1.559,13.3,13.3,0,0,0,.562-1.6,14.49,14.49,0,0,0,.461-2.925,14.952,14.952,0,0,0-.034-2.1q-.025-.325-.076-.647Zm-13.2,0-.03-.2-.031.007A5.4,5.4,0,1,0,7.4,15.8a5.369,5.369,0,0,0,.78-.078,4.3,4.3,0,0,1-.3.816,5.057,5.057,0,0,1-.563,1.013,5.981,5.981,0,0,1-.721.885,8.16,8.16,0,0,1-.831.725,5.1,5.1,0,0,1-.857.556,4.556,4.556,0,0,1-.78.42l-.647.266c-.361.148-.568.234-.568.234l.581,2.328.717-.173c.229-.058.509-.125.827-.205a6.512,6.512,0,0,0,1.059-.375,7.511,7.511,0,0,0,1.234-.561,11.273,11.273,0,0,0,1.31-.831A9.4,9.4,0,0,0,9.9,19.692,8.415,8.415,0,0,0,10.989,18.3a9.75,9.75,0,0,0,.843-1.559,13.3,13.3,0,0,0,.562-1.6,14.49,14.49,0,0,0,.461-2.925,14.952,14.952,0,0,0-.034-2.1q-.027-.324-.077-.645Z" transform="translate(825.963 5499.015)" fill="#fff"/>
  </g>
</svg>
