<?xml version="1.0" encoding="UTF-8" standalone="no"?>
<!DOCTYPE svg PUBLIC "-//W3C//DTD SVG 1.1//EN" "http://www.w3.org/Graphics/SVG/1.1/DTD/svg11.dtd">
<svg width="100%" height="100%" viewBox="0 0 222 79" version="1.1" xmlns="http://www.w3.org/2000/svg" xmlns:xlink="http://www.w3.org/1999/xlink" xml:space="preserve" xmlns:serif="http://www.serif.com/" style="fill-rule:evenodd;clip-rule:evenodd;stroke-linejoin:round;stroke-miterlimit:1.41421;">
    <g id="Artboard1" transform="matrix(0.442797,0,0,0.392214,0,0)">
        <rect x="0" y="0" width="500" height="200" style="fill:none;"/>
        <g id="Senada-Logo" serif:id="Senada Logo" transform="matrix(0.572953,0,0,1.72837,6.53324,9.02801)">
            <g transform="matrix(4.16667,0,0,1.55938,0,0)">
                <path d="M9.52,29.683C10.059,30.585 10.33,31.62 10.33,32.789L10.33,48.993C10.33,50.389 9.845,51.548 8.878,52.47C7.91,53.394 6.638,53.855 5.063,53.855C3.486,53.855 2.25,53.427 1.349,52.572C0.448,51.717 0,50.614 0,49.264L0,35.085L2.902,35.085L2.902,51.028C2.902,51.701 3.098,52.262 3.492,52.71C3.886,53.159 4.41,53.382 5.066,53.382C5.764,53.382 6.333,53.159 6.77,52.709C7.207,52.261 7.426,51.699 7.426,51.027L7.426,33.726L7.426,32.851C7.426,32.403 7.396,32.066 7.336,31.841C7.275,31.619 7.126,31.282 6.885,30.832L0.472,20.839C0.156,20.388 0,19.241 0,17.394L0,5.512C0,4.117 0.483,2.958 1.451,2.035C2.419,1.113 3.69,0.65 5.266,0.65C6.752,0.65 7.967,1.181 8.911,2.236C9.857,3.295 10.33,4.522 10.33,5.917L10.33,17.867L7.426,17.867L7.426,3.486C7.426,1.911 6.705,1.124 5.262,1.124C4.564,1.124 3.994,1.348 3.558,1.795C3.121,2.243 2.902,2.804 2.902,3.476L2.902,17.457C2.902,17.995 2.913,18.453 2.934,18.834C2.954,19.214 3.065,19.584 3.267,19.942L9.52,29.683Z" style="fill:#fff;fill-rule:nonzero;"/>
            </g>
            <g transform="matrix(4.16667,0,0,1.55938,0,0)">
                <path d="M47.53,53.45L34.567,53.45L34.567,52.977L37.066,52.977L37.066,1.528L34.567,1.528L34.567,1.056L47.53,1.056L47.53,14.965L46.991,14.965C46.991,9.519 46.697,5.917 46.113,4.161C45.528,2.405 44.178,1.528 42.062,1.528L39.969,1.528L39.969,24.35C41.05,24.35 41.87,23.866 42.434,22.897C42.995,21.931 43.277,20.028 43.277,17.192L43.818,17.192L43.818,31.978L43.277,31.978C43.277,29.143 43.018,27.243 42.501,26.273C41.983,25.306 41.206,24.822 40.172,24.822L39.969,52.977L42.062,52.977C44.131,52.977 45.471,52.088 46.08,50.309C46.687,48.532 46.991,44.943 46.991,39.541L47.53,39.541L47.53,53.45Z" style="fill:#fff;fill-rule:nonzero;"/>
            </g>
            <g transform="matrix(4.16667,0,0,1.55938,0,0)">
                <path d="M83.592,38.325L83.585,1.528L80.952,1.528L80.952,1.056L87.028,1.056L87.028,1.528L84.53,1.528L84.53,53.922L83.583,53.922L73.93,1.528L73.93,52.977L76.495,52.977L76.495,53.45L70.418,53.45L70.418,52.977L72.985,52.977L72.985,1.528L70.418,1.528L70.418,1.056L76.794,1.056L83.592,38.325Z" style="fill:#fff;fill-rule:nonzero;"/>
            </g>
            <g transform="matrix(4.16667,0,0,1.55938,0,0)">
                <path d="M113.968,37.177L120.131,37.177L117.342,12.546L113.968,37.177ZM113.825,38.191L111.681,52.977L114.238,52.977L114.238,53.45L108.161,53.45L108.161,52.977L110.726,52.977L118.018,1.056L118.962,1.056L124.839,52.977L127.405,52.977L127.405,53.45L119.434,53.45L119.434,52.977L121.985,52.979L120.242,38.191L113.825,38.191Z" style="fill:#fff;fill-rule:nonzero;"/>
            </g>
            <g transform="matrix(4.16667,0,0,1.55938,0,0)">
                <path d="M153.398,52.977L156.059,52.977C156.726,52.977 157.26,52.752 157.659,52.302C158.057,51.853 158.259,51.312 158.259,50.681L158.259,3.892C158.259,2.316 157.526,1.528 156.059,1.528L153.398,1.528L153.398,52.977ZM156.097,53.45L147.997,53.45L147.997,52.977L150.494,52.977L150.494,1.528L147.997,1.528L147.997,1.056L156.097,1.056C157.628,1.056 158.854,1.585 159.776,2.642C160.698,3.7 161.161,4.928 161.161,6.322L161.161,48.859C161.161,50.209 160.712,51.312 159.811,52.167C158.911,53.022 157.673,53.45 156.097,53.45Z" style="fill:#fff;fill-rule:nonzero;"/>
            </g>
            <g transform="matrix(4.16667,0,0,1.55938,0,0)">
                <path d="M190.533,37.177L196.694,37.177L193.907,12.546L190.533,37.177ZM190.389,38.191L188.246,52.977L190.801,52.977L190.801,53.45L184.725,53.45L184.725,52.977L187.289,52.977L194.585,1.056L195.528,1.056L201.402,52.977L203.968,52.977L203.968,53.45L196.001,53.45L196.001,52.977L198.551,52.979L196.808,38.191L190.389,38.191Z" style="fill:#fff;fill-rule:nonzero;"/>
            </g>
            <g transform="matrix(4.16667,0,0,1.55938,0,0)">
                <path d="M23.146,29.299C23.146,29.908 22.653,30.401 22.044,30.401C21.435,30.401 20.942,29.908 20.942,29.299C20.942,28.691 21.435,28.198 22.044,28.198C22.653,28.198 23.146,28.691 23.146,29.299Z" style="fill:#fff;fill-rule:nonzero;"/>
            </g>
            <g transform="matrix(4.16667,0,0,1.55938,0,0)">
                <path d="M59.874,29.299C59.874,29.908 59.381,30.401 58.772,30.401C58.164,30.401 57.67,29.908 57.67,29.299C57.67,28.691 58.164,28.198 58.772,28.198C59.381,28.198 59.874,28.691 59.874,29.299Z" style="fill:#fff;fill-rule:nonzero;"/>
            </g>
            <g transform="matrix(4.16667,0,0,1.55938,0,0)">
                <path d="M99.119,29.299C99.119,29.908 98.626,30.401 98.017,30.401C97.408,30.401 96.915,29.908 96.915,29.299C96.915,28.691 97.408,28.198 98.017,28.198C98.626,28.198 99.119,28.691 99.119,29.299Z" style="fill:#fff;fill-rule:nonzero;"/>
            </g>
            <g transform="matrix(4.16667,0,0,1.55938,0,0)">
                <path d="M137.657,29.299C137.657,29.908 137.164,30.401 136.555,30.401C135.946,30.401 135.453,29.908 135.453,29.299C135.453,28.691 135.946,28.198 136.555,28.198C137.164,28.198 137.657,28.691 137.657,29.299Z" style="fill:#fff;fill-rule:nonzero;"/>
            </g>
            <g transform="matrix(4.16667,0,0,1.55938,0,0)">
                <path d="M177.256,29.299C177.256,29.908 176.761,30.401 176.153,30.401C175.545,30.401 175.051,29.908 175.051,29.299C175.051,28.691 175.545,28.198 176.153,28.198C176.761,28.198 177.256,28.691 177.256,29.299Z" style="fill:#fff;fill-rule:nonzero;"/>
            </g>
            <g transform="matrix(4.16667,0,0,1.55938,0,0)">
                <path d="M1.648,65.262L2.229,63.887L2.892,65.262L1.648,65.262ZM0.159,66.767L1.256,66.767L1.256,66.62C1.207,66.62 1.166,66.612 1.141,66.603C1.117,66.595 1.1,66.563 1.1,66.522C1.1,66.497 1.108,66.464 1.125,66.423C1.133,66.391 1.149,66.35 1.174,66.309L1.403,65.867L3.154,65.867L3.375,66.333C3.391,66.374 3.408,66.415 3.416,66.44C3.424,66.464 3.432,66.497 3.432,66.53C3.432,66.571 3.416,66.603 3.391,66.62C3.358,66.636 3.326,66.644 3.301,66.644L3.301,66.767L4.463,66.767L4.463,66.62C4.422,66.612 4.389,66.595 4.357,66.571C4.324,66.546 4.291,66.513 4.267,66.464L2.941,63.683C2.917,63.625 2.892,63.568 2.868,63.519C2.843,63.478 2.827,63.437 2.827,63.404C2.827,63.363 2.835,63.347 2.859,63.339C2.876,63.331 2.892,63.323 2.908,63.314L2.908,63.167L1.673,63.167L1.673,63.314C1.689,63.323 1.706,63.331 1.722,63.339C1.73,63.347 1.738,63.372 1.738,63.404C1.738,63.445 1.73,63.494 1.714,63.535C1.689,63.584 1.665,63.65 1.632,63.723L0.413,66.383C0.388,66.423 0.364,66.473 0.323,66.522C0.282,66.579 0.225,66.612 0.159,66.62L0.159,66.767Z" style="fill:#fff;fill-rule:nonzero;"/>
            </g>
            <g transform="matrix(4.16667,0,0,1.55938,0,0)">
                <path d="M8.62,66.767L9.675,66.767L9.675,66.62C9.577,66.62 9.528,66.579 9.528,66.497L9.528,63.773L10.592,63.773C10.633,63.773 10.674,63.781 10.714,63.805C10.755,63.83 10.772,63.863 10.772,63.912L10.919,63.912L10.919,62.971L10.772,62.971C10.772,63.044 10.755,63.102 10.714,63.126C10.674,63.151 10.633,63.167 10.592,63.167L7.679,63.167C7.638,63.167 7.597,63.151 7.556,63.126C7.515,63.102 7.499,63.044 7.499,62.971L7.352,62.971L7.352,63.912L7.499,63.912C7.499,63.863 7.515,63.83 7.556,63.805C7.597,63.781 7.638,63.773 7.679,63.773L8.743,63.773L8.743,66.497C8.743,66.538 8.726,66.571 8.702,66.587C8.677,66.612 8.644,66.62 8.62,66.62L8.62,66.767Z" style="fill:#fff;fill-rule:nonzero;"/>
            </g>
            <g transform="matrix(4.16667,0,0,1.55938,0,0)">
                <path d="M20.205,66.162L20.205,63.773L21.269,63.773C21.441,63.773 21.596,63.781 21.752,63.797C21.907,63.822 22.038,63.871 22.153,63.944C22.267,64.026 22.357,64.141 22.431,64.296C22.496,64.452 22.529,64.673 22.529,64.943C22.529,65.213 22.496,65.433 22.431,65.589C22.357,65.753 22.267,65.875 22.153,65.957C22.038,66.047 21.907,66.096 21.752,66.121C21.596,66.145 21.441,66.162 21.269,66.162L20.205,66.162ZM19.232,66.767L21.539,66.767C21.858,66.767 22.136,66.718 22.357,66.612C22.578,66.505 22.766,66.374 22.905,66.203C23.045,66.039 23.151,65.851 23.216,65.63C23.282,65.417 23.315,65.196 23.315,64.967C23.315,64.738 23.282,64.517 23.216,64.296C23.143,64.083 23.036,63.895 22.897,63.723C22.75,63.56 22.562,63.429 22.333,63.323C22.104,63.216 21.825,63.167 21.506,63.167L19.232,63.167L19.232,63.314C19.355,63.314 19.42,63.355 19.42,63.437L19.42,66.497C19.42,66.579 19.355,66.62 19.232,66.62L19.232,66.767Z" style="fill:#fff;fill-rule:nonzero;"/>
            </g>
            <g transform="matrix(4.16667,0,0,1.55938,0,0)">
                <path d="M29.197,63.805C29.361,63.863 29.508,63.944 29.639,64.051C29.77,64.157 29.876,64.288 29.958,64.443C30.032,64.599 30.072,64.771 30.072,64.967C30.072,65.163 30.032,65.335 29.958,65.491C29.876,65.646 29.77,65.769 29.639,65.875C29.508,65.982 29.361,66.063 29.197,66.121C29.025,66.178 28.853,66.211 28.682,66.211C28.51,66.211 28.338,66.178 28.174,66.121C28.002,66.063 27.855,65.982 27.724,65.875C27.593,65.769 27.487,65.646 27.413,65.491C27.331,65.335 27.291,65.163 27.291,64.967C27.291,64.771 27.331,64.599 27.413,64.443C27.487,64.288 27.593,64.157 27.724,64.051C27.855,63.944 28.002,63.863 28.174,63.805C28.338,63.748 28.51,63.723 28.682,63.723C28.853,63.723 29.025,63.748 29.197,63.805ZM27.839,63.233C27.569,63.306 27.34,63.421 27.143,63.576C26.947,63.732 26.791,63.92 26.677,64.149C26.562,64.386 26.505,64.656 26.505,64.967C26.505,65.278 26.562,65.548 26.677,65.777C26.791,66.014 26.947,66.203 27.143,66.358C27.34,66.513 27.569,66.62 27.839,66.685C28.101,66.759 28.379,66.792 28.682,66.792C28.984,66.792 29.262,66.759 29.532,66.685C29.794,66.62 30.023,66.513 30.22,66.358C30.416,66.203 30.572,66.014 30.686,65.777C30.801,65.548 30.858,65.278 30.858,64.967C30.858,64.656 30.801,64.386 30.686,64.149C30.572,63.92 30.416,63.732 30.22,63.576C30.023,63.421 29.794,63.306 29.532,63.233C29.262,63.159 28.984,63.118 28.682,63.118C28.379,63.118 28.101,63.159 27.839,63.233Z" style="fill:#fff;fill-rule:nonzero;"/>
            </g>
            <g transform="matrix(4.16667,0,0,1.55938,0,0)">
                <path d="M35.464,63.167L34.294,63.167L34.294,63.314C34.384,63.314 34.45,63.323 34.483,63.339C34.515,63.363 34.532,63.396 34.532,63.437L34.532,65.507C34.532,65.679 34.573,65.834 34.646,65.99C34.72,66.145 34.843,66.284 34.998,66.407C35.154,66.53 35.35,66.62 35.595,66.685C35.833,66.759 36.119,66.792 36.446,66.792C36.774,66.792 37.06,66.759 37.305,66.685C37.543,66.62 37.747,66.53 37.903,66.407C38.058,66.284 38.173,66.145 38.246,65.99C38.32,65.834 38.361,65.679 38.361,65.507L38.361,63.437C38.361,63.355 38.418,63.314 38.541,63.314L38.541,63.167L37.404,63.167L37.404,63.314C37.543,63.314 37.608,63.355 37.608,63.437L37.608,65.319C37.608,65.581 37.51,65.793 37.322,65.949C37.134,66.104 36.839,66.186 36.446,66.186C36.054,66.186 35.759,66.104 35.571,65.949C35.383,65.793 35.284,65.581 35.284,65.319L35.284,63.437C35.284,63.355 35.342,63.314 35.464,63.314L35.464,63.167Z" style="fill:#fff;fill-rule:nonzero;"/>
            </g>
            <g transform="matrix(4.16667,0,0,1.55938,0,0)">
                <path d="M45.978,63.462L45.88,63.413C45.847,63.437 45.823,63.453 45.798,63.462C45.774,63.47 45.741,63.478 45.7,63.478C45.659,63.478 45.602,63.462 45.528,63.421C45.454,63.38 45.348,63.339 45.225,63.298C45.103,63.257 44.964,63.216 44.8,63.175C44.636,63.134 44.448,63.118 44.235,63.118C43.884,63.118 43.564,63.159 43.278,63.241C42.992,63.331 42.746,63.453 42.55,63.609C42.345,63.773 42.198,63.969 42.092,64.19C41.985,64.419 41.928,64.681 41.928,64.967C41.928,65.253 41.985,65.515 42.092,65.736C42.198,65.965 42.345,66.162 42.55,66.317C42.746,66.473 42.992,66.595 43.278,66.669C43.564,66.751 43.884,66.792 44.235,66.792C44.497,66.792 44.734,66.775 44.947,66.734C45.16,66.702 45.348,66.661 45.512,66.603C45.667,66.546 45.806,66.489 45.913,66.432C46.019,66.374 46.093,66.333 46.142,66.301L46.142,66.203C46.085,66.178 46.052,66.162 46.044,66.137C46.027,66.121 46.019,66.088 46.019,66.039L46.019,65.262C46.019,65.204 46.027,65.163 46.044,65.139C46.06,65.114 46.093,65.09 46.142,65.065L46.142,64.918L44.538,64.918C44.481,64.918 44.424,64.91 44.383,64.893C44.342,64.877 44.309,64.844 44.301,64.787L44.154,64.787L44.154,65.63L44.301,65.63C44.309,65.564 44.342,65.515 44.383,65.491C44.424,65.466 44.481,65.458 44.538,65.458L45.381,65.458L45.381,65.973C45.209,66.063 45.013,66.129 44.808,66.162C44.595,66.194 44.374,66.211 44.137,66.211C43.982,66.211 43.818,66.186 43.646,66.145C43.474,66.104 43.327,66.031 43.188,65.933C43.049,65.843 42.934,65.712 42.844,65.556C42.754,65.401 42.714,65.213 42.714,64.983C42.714,64.754 42.754,64.558 42.836,64.403C42.918,64.247 43.024,64.116 43.164,64.01C43.303,63.912 43.458,63.838 43.638,63.789C43.818,63.748 44.006,63.723 44.211,63.723C44.358,63.723 44.505,63.74 44.653,63.764C44.792,63.797 44.923,63.838 45.037,63.887C45.152,63.936 45.242,63.985 45.315,64.043C45.389,64.1 45.422,64.157 45.422,64.206C45.422,64.214 45.414,64.239 45.405,64.296L45.504,64.353L45.978,63.462Z" style="fill:#fff;fill-rule:nonzero;"/>
            </g>
            <g transform="matrix(4.16667,0,0,1.55938,0,0)">
                <path d="M49.775,63.167L49.775,63.314C49.914,63.314 49.987,63.355 49.987,63.437L49.987,66.497C49.987,66.579 49.914,66.62 49.775,66.62L49.775,66.767L52.982,66.767C53.047,66.767 53.105,66.767 53.146,66.775C53.187,66.783 53.211,66.808 53.211,66.849L53.358,66.849L53.358,65.99L53.211,65.99C53.211,66.047 53.187,66.088 53.146,66.113C53.105,66.145 53.047,66.162 52.982,66.162L50.773,66.162L50.773,63.437C50.773,63.355 50.838,63.314 50.961,63.314L50.961,63.167L49.775,63.167Z" style="fill:#fff;fill-rule:nonzero;"/>
            </g>
            <g transform="matrix(4.16667,0,0,1.55938,0,0)">
                <path d="M57.817,65.262L58.398,63.887L59.061,65.262L57.817,65.262ZM56.328,66.767L57.425,66.767L57.425,66.62C57.376,66.62 57.335,66.612 57.31,66.603C57.286,66.595 57.269,66.563 57.269,66.522C57.269,66.497 57.277,66.464 57.294,66.423C57.302,66.391 57.318,66.35 57.343,66.309L57.572,65.867L59.323,65.867L59.544,66.333C59.56,66.374 59.577,66.415 59.585,66.44C59.593,66.464 59.601,66.497 59.601,66.53C59.601,66.571 59.585,66.603 59.56,66.62C59.527,66.636 59.495,66.644 59.47,66.644L59.47,66.767L60.632,66.767L60.632,66.62C60.591,66.612 60.558,66.595 60.526,66.571C60.493,66.546 60.46,66.513 60.436,66.464L59.11,63.683C59.086,63.625 59.061,63.568 59.037,63.519C59.012,63.478 58.996,63.437 58.996,63.404C58.996,63.363 59.004,63.347 59.028,63.339C59.045,63.331 59.061,63.323 59.077,63.314L59.077,63.167L57.842,63.167L57.842,63.314C57.858,63.323 57.875,63.331 57.891,63.339C57.899,63.347 57.907,63.372 57.907,63.404C57.907,63.445 57.899,63.494 57.883,63.535C57.858,63.584 57.834,63.65 57.801,63.723L56.582,66.383C56.557,66.423 56.533,66.473 56.492,66.522C56.451,66.579 56.394,66.612 56.328,66.62L56.328,66.767Z" style="fill:#fff;fill-rule:nonzero;"/>
            </g>
            <g transform="matrix(4.16667,0,0,1.55938,0,0)">
                <path d="M64.012,65.474L63.635,66.391L63.75,66.473C63.774,66.44 63.807,66.423 63.848,66.423C63.872,66.423 63.93,66.44 64.036,66.481C64.142,66.522 64.265,66.571 64.421,66.612C64.568,66.661 64.732,66.702 64.92,66.734C65.1,66.775 65.28,66.792 65.468,66.792C65.656,66.792 65.852,66.775 66.065,66.751C66.27,66.726 66.466,66.669 66.638,66.579C66.81,66.489 66.957,66.374 67.08,66.219C67.194,66.063 67.252,65.867 67.252,65.63C67.252,65.393 67.186,65.204 67.055,65.065C66.916,64.926 66.752,64.828 66.548,64.754C66.343,64.681 66.131,64.632 65.893,64.599C65.656,64.574 65.443,64.542 65.239,64.509C65.034,64.484 64.871,64.443 64.74,64.386C64.601,64.337 64.535,64.255 64.535,64.133C64.535,64.059 64.56,63.993 64.601,63.936C64.642,63.887 64.707,63.846 64.781,63.813C64.854,63.781 64.944,63.756 65.042,63.74C65.141,63.732 65.247,63.723 65.353,63.723C65.64,63.723 65.893,63.756 66.122,63.822C66.352,63.887 66.523,63.969 66.63,64.059C66.671,64.092 66.695,64.124 66.703,64.157C66.712,64.19 66.712,64.223 66.72,64.255L66.867,64.304L67.276,63.535L67.186,63.445C67.153,63.462 67.129,63.478 67.104,63.486C67.08,63.503 67.047,63.511 67.006,63.511C66.965,63.511 66.908,63.486 66.834,63.445C66.752,63.404 66.646,63.363 66.523,63.314C66.401,63.265 66.245,63.216 66.065,63.175C65.877,63.134 65.656,63.118 65.402,63.118C64.879,63.118 64.47,63.224 64.183,63.429C63.897,63.633 63.75,63.912 63.75,64.263C63.75,64.501 63.815,64.681 63.954,64.803C64.085,64.934 64.249,65.033 64.453,65.098C64.658,65.172 64.871,65.221 65.108,65.245C65.345,65.278 65.558,65.311 65.762,65.335C65.967,65.368 66.131,65.409 66.27,65.466C66.401,65.523 66.466,65.605 66.466,65.728C66.466,65.834 66.425,65.916 66.352,65.973C66.278,66.039 66.18,66.088 66.073,66.121C65.967,66.162 65.852,66.186 65.746,66.194C65.632,66.203 65.533,66.211 65.46,66.211C65.378,66.211 65.263,66.194 65.124,66.17C64.977,66.145 64.83,66.104 64.691,66.055C64.543,66.014 64.421,65.957 64.314,65.883C64.208,65.818 64.159,65.744 64.159,65.663C64.159,65.638 64.159,65.605 64.167,65.581C64.167,65.556 64.167,65.54 64.167,65.515L64.012,65.474Z" style="fill:#fff;fill-rule:nonzero;"/>
            </g>
            <g transform="matrix(4.16667,0,0,1.55938,0,0)">
                <path d="M79.287,63.928L79.287,63.02L79.14,63.02C79.14,63.118 79.058,63.167 78.887,63.167L75.982,63.167L75.982,63.314C76.007,63.314 76.039,63.323 76.064,63.339C76.088,63.363 76.105,63.396 76.105,63.437L76.105,66.497C76.105,66.538 76.088,66.571 76.064,66.587C76.039,66.612 76.007,66.62 75.982,66.62L75.982,66.767L78.985,66.767C79.05,66.767 79.107,66.767 79.148,66.775C79.189,66.783 79.214,66.808 79.214,66.857L79.361,66.857L79.361,65.998L79.214,65.998C79.214,66.047 79.189,66.088 79.148,66.113C79.107,66.145 79.05,66.162 78.985,66.162L76.89,66.162L76.89,65.196L78.085,65.196C78.191,65.196 78.281,65.204 78.338,65.213C78.396,65.229 78.42,65.27 78.404,65.327L78.567,65.327L78.567,64.46L78.42,64.46C78.42,64.517 78.396,64.558 78.355,64.566C78.314,64.583 78.24,64.591 78.15,64.591L76.89,64.591L76.89,63.773L78.887,63.773C79.058,63.773 79.14,63.822 79.14,63.928L79.287,63.928Z" style="fill:#fff;fill-rule:nonzero;"/>
            </g>
            <g transform="matrix(4.16667,0,0,1.55938,0,0)">
                <path d="M82.986,63.167L82.986,63.314C83.125,63.314 83.198,63.355 83.198,63.437L83.198,66.497C83.198,66.579 83.125,66.62 82.986,66.62L82.986,66.767L86.193,66.767C86.258,66.767 86.316,66.767 86.357,66.775C86.397,66.783 86.422,66.808 86.422,66.849L86.569,66.849L86.569,65.99L86.422,65.99C86.422,66.047 86.397,66.088 86.357,66.113C86.316,66.145 86.258,66.162 86.193,66.162L83.984,66.162L83.984,63.437C83.984,63.355 84.049,63.314 84.172,63.314L84.172,63.167L82.986,63.167Z" style="fill:#fff;fill-rule:nonzero;"/>
            </g>
            <g transform="matrix(4.16667,0,0,1.55938,0,0)">
                <path d="M90.039,63.167L90.039,63.314C90.178,63.314 90.252,63.355 90.252,63.437L90.252,66.497C90.252,66.579 90.178,66.62 90.039,66.62L90.039,66.767L93.246,66.767C93.312,66.767 93.369,66.767 93.41,66.775C93.451,66.783 93.475,66.808 93.475,66.849L93.623,66.849L93.623,65.99L93.475,65.99C93.475,66.047 93.451,66.088 93.41,66.113C93.369,66.145 93.312,66.162 93.246,66.162L91.037,66.162L91.037,63.437C91.037,63.355 91.102,63.314 91.225,63.314L91.225,63.167L90.039,63.167Z" style="fill:#fff;fill-rule:nonzero;"/>
            </g>
            <g transform="matrix(4.16667,0,0,1.55938,0,0)">
                <path d="M97.206,66.767L98.45,66.767L98.45,66.62C98.294,66.62 98.221,66.579 98.221,66.497L98.221,63.437C98.221,63.355 98.294,63.314 98.45,63.314L98.45,63.167L97.206,63.167L97.206,63.314C97.296,63.314 97.353,63.323 97.386,63.339C97.419,63.363 97.435,63.396 97.435,63.437L97.435,66.497C97.435,66.538 97.419,66.571 97.386,66.587C97.353,66.612 97.296,66.62 97.206,66.62L97.206,66.767Z" style="fill:#fff;fill-rule:nonzero;"/>
            </g>
            <g transform="matrix(4.16667,0,0,1.55938,0,0)">
                <path d="M102.459,66.767L103.384,66.767L103.384,66.62C103.294,66.62 103.245,66.579 103.245,66.497L103.245,64.198L103.261,64.198L103.253,64.198L104.57,66.767L104.636,66.767L106.026,64.198L106.043,64.198L106.043,66.497C106.059,66.579 106.01,66.62 105.896,66.62L105.896,66.767L106.845,66.767L106.845,66.62C106.82,66.62 106.796,66.612 106.771,66.587C106.747,66.571 106.73,66.538 106.73,66.497L106.73,63.421C106.73,63.38 106.747,63.347 106.771,63.331C106.796,63.323 106.82,63.314 106.845,63.314L106.845,63.167L105.691,63.167L105.691,63.314C105.732,63.314 105.756,63.339 105.756,63.388C105.756,63.404 105.748,63.429 105.724,63.47C105.699,63.511 105.675,63.568 105.634,63.633L104.627,65.466L103.629,63.625C103.588,63.56 103.564,63.511 103.547,63.47C103.523,63.437 103.515,63.413 103.515,63.388C103.515,63.339 103.539,63.314 103.596,63.314L103.596,63.167L102.459,63.167L102.459,63.314C102.5,63.314 102.525,63.323 102.541,63.339C102.549,63.355 102.557,63.404 102.557,63.478L102.557,66.473C102.557,66.53 102.549,66.571 102.533,66.587C102.508,66.603 102.484,66.612 102.459,66.62L102.459,66.767Z" style="fill:#fff;fill-rule:nonzero;"/>
            </g>
            <g transform="matrix(4.16667,0,0,1.55938,0,0)">
                <path d="M111.721,65.262L112.302,63.887L112.964,65.262L111.721,65.262ZM110.232,66.767L111.328,66.767L111.328,66.62C111.279,66.62 111.238,66.612 111.213,66.603C111.189,66.595 111.173,66.563 111.173,66.522C111.173,66.497 111.181,66.464 111.197,66.423C111.205,66.391 111.222,66.35 111.246,66.309L111.475,65.867L113.226,65.867L113.447,66.333C113.463,66.374 113.48,66.415 113.488,66.44C113.496,66.464 113.504,66.497 113.504,66.53C113.504,66.571 113.488,66.603 113.463,66.62C113.431,66.636 113.398,66.644 113.373,66.644L113.373,66.767L114.535,66.767L114.535,66.62C114.494,66.612 114.462,66.595 114.429,66.571C114.396,66.546 114.363,66.513 114.339,66.464L113.013,63.683C112.989,63.625 112.964,63.568 112.94,63.519C112.915,63.478 112.899,63.437 112.899,63.404C112.899,63.363 112.907,63.347 112.932,63.339C112.948,63.331 112.964,63.323 112.981,63.314L112.981,63.167L111.745,63.167L111.745,63.314C111.762,63.323 111.778,63.331 111.794,63.339C111.803,63.347 111.811,63.372 111.811,63.404C111.811,63.445 111.803,63.494 111.786,63.535C111.762,63.584 111.737,63.65 111.704,63.723L110.485,66.383C110.461,66.423 110.436,66.473 110.395,66.522C110.354,66.579 110.297,66.612 110.232,66.62L110.232,66.767Z" style="fill:#fff;fill-rule:nonzero;"/>
            </g>
            <g transform="matrix(4.16667,0,0,1.55938,0,0)">
                <path d="M117.824,66.767L118.831,66.767L118.831,66.62C118.716,66.62 118.659,66.579 118.659,66.497L118.659,64.116L120.688,66.276C120.753,66.35 120.811,66.407 120.868,66.464C120.917,66.522 120.942,66.554 120.942,66.579C120.942,66.603 120.925,66.62 120.884,66.62L120.884,66.767L121.948,66.767L121.948,66.62C121.85,66.62 121.801,66.579 121.801,66.497L121.801,63.437C121.801,63.355 121.85,63.314 121.948,63.314L121.948,63.167L120.95,63.167L120.95,63.314C121.056,63.314 121.113,63.355 121.113,63.437L121.113,65.654L119.15,63.576C119.027,63.453 118.97,63.38 118.97,63.355C118.97,63.331 118.986,63.323 119.027,63.314L119.027,63.167L117.824,63.167L117.824,63.314C117.923,63.314 117.972,63.355 117.972,63.437L117.972,66.497C117.972,66.579 117.923,66.62 117.824,66.62L117.824,66.767Z" style="fill:#fff;fill-rule:nonzero;"/>
            </g>
            <g transform="matrix(4.16667,0,0,1.55938,0,0)">
                <path d="M131.71,64.722L131.71,63.773L133.003,63.773C133.281,63.773 133.485,63.813 133.616,63.887C133.739,63.969 133.804,64.075 133.804,64.214C133.804,64.55 133.534,64.722 133.003,64.722L131.71,64.722ZM130.761,63.167L130.761,63.314C130.859,63.314 130.908,63.355 130.908,63.437L130.908,66.497C130.908,66.579 130.859,66.62 130.761,66.62L130.761,66.767L131.849,66.767L131.849,66.62C131.816,66.62 131.784,66.612 131.751,66.587C131.71,66.571 131.694,66.538 131.694,66.497L131.694,65.327L132.831,65.327L133.477,66.293C133.559,66.407 133.6,66.489 133.6,66.546C133.6,66.595 133.567,66.62 133.494,66.62L133.494,66.767L134.745,66.767L134.745,66.62C134.688,66.603 134.631,66.579 134.582,66.546C134.524,66.522 134.475,66.473 134.434,66.415L133.633,65.245C133.747,65.221 133.862,65.18 133.968,65.123C134.074,65.073 134.181,65.008 134.271,64.918C134.361,64.836 134.426,64.738 134.484,64.623C134.541,64.509 134.565,64.378 134.565,64.231C134.565,63.846 134.426,63.568 134.156,63.404C133.886,63.249 133.502,63.167 133.019,63.167L130.761,63.167Z" style="fill:#fff;fill-rule:nonzero;"/>
            </g>
            <g transform="matrix(4.16667,0,0,1.55938,0,0)">
                <path d="M141.602,63.928L141.602,63.02L141.455,63.02C141.455,63.118 141.373,63.167 141.201,63.167L138.296,63.167L138.296,63.314C138.321,63.314 138.354,63.323 138.378,63.339C138.403,63.363 138.419,63.396 138.419,63.437L138.419,66.497C138.419,66.538 138.403,66.571 138.378,66.587C138.354,66.612 138.321,66.62 138.296,66.62L138.296,66.767L141.299,66.767C141.365,66.767 141.422,66.767 141.463,66.775C141.504,66.783 141.528,66.808 141.528,66.857L141.676,66.857L141.676,65.998L141.528,65.998C141.528,66.047 141.504,66.088 141.463,66.113C141.422,66.145 141.365,66.162 141.299,66.162L139.205,66.162L139.205,65.196L140.399,65.196C140.506,65.196 140.596,65.204 140.653,65.213C140.71,65.229 140.735,65.27 140.718,65.327L140.882,65.327L140.882,64.46L140.735,64.46C140.735,64.517 140.71,64.558 140.669,64.566C140.628,64.583 140.555,64.591 140.465,64.591L139.205,64.591L139.205,63.773L141.201,63.773C141.373,63.773 141.455,63.822 141.455,63.928L141.602,63.928Z" style="fill:#fff;fill-rule:nonzero;"/>
            </g>
            <g transform="matrix(4.16667,0,0,1.55938,0,0)">
                <path d="M146.29,65.262L146.871,63.887L147.534,65.262L146.29,65.262ZM144.801,66.767L145.897,66.767L145.897,66.62C145.848,66.62 145.807,66.612 145.783,66.603C145.758,66.595 145.742,66.563 145.742,66.522C145.742,66.497 145.75,66.464 145.766,66.423C145.775,66.391 145.791,66.35 145.816,66.309L146.045,65.867L147.796,65.867L148.016,66.333C148.033,66.374 148.049,66.415 148.057,66.44C148.066,66.464 148.074,66.497 148.074,66.53C148.074,66.571 148.057,66.603 148.033,66.62C148,66.636 147.967,66.644 147.943,66.644L147.943,66.767L149.105,66.767L149.105,66.62C149.064,66.612 149.031,66.595 148.998,66.571C148.966,66.546 148.933,66.513 148.908,66.464L147.583,63.683C147.558,63.625 147.534,63.568 147.509,63.519C147.485,63.478 147.468,63.437 147.468,63.404C147.468,63.363 147.476,63.347 147.501,63.339C147.517,63.331 147.534,63.323 147.55,63.314L147.55,63.167L146.315,63.167L146.315,63.314C146.331,63.323 146.347,63.331 146.364,63.339C146.372,63.347 146.38,63.372 146.38,63.404C146.38,63.445 146.372,63.494 146.356,63.535C146.331,63.584 146.306,63.65 146.274,63.723L145.055,66.383C145.03,66.423 145.006,66.473 144.965,66.522C144.924,66.579 144.866,66.612 144.801,66.62L144.801,66.767Z" style="fill:#fff;fill-rule:nonzero;"/>
            </g>
            <g transform="matrix(4.16667,0,0,1.55938,0,0)">
                <path d="M152.353,63.167L152.353,63.314C152.492,63.314 152.566,63.355 152.566,63.437L152.566,66.497C152.566,66.579 152.492,66.62 152.353,66.62L152.353,66.767L155.56,66.767C155.626,66.767 155.683,66.767 155.724,66.775C155.765,66.783 155.789,66.808 155.789,66.849L155.936,66.849L155.936,65.99L155.789,65.99C155.789,66.047 155.765,66.088 155.724,66.113C155.683,66.145 155.626,66.162 155.56,66.162L153.351,66.162L153.351,63.437C153.351,63.355 153.416,63.314 153.539,63.314L153.539,63.167L152.353,63.167Z" style="fill:#fff;fill-rule:nonzero;"/>
            </g>
            <g transform="matrix(4.16667,0,0,1.55938,0,0)">
                <path d="M167.76,63.928L167.76,63.02L167.613,63.02C167.613,63.118 167.531,63.167 167.359,63.167L164.455,63.167L164.455,63.314C164.479,63.314 164.512,63.323 164.536,63.339C164.561,63.363 164.577,63.396 164.577,63.437L164.577,66.497C164.577,66.538 164.561,66.571 164.536,66.587C164.512,66.612 164.479,66.62 164.455,66.62L164.455,66.767L167.457,66.767C167.523,66.767 167.58,66.767 167.621,66.775C167.662,66.783 167.686,66.808 167.686,66.857L167.834,66.857L167.834,65.998L167.686,65.998C167.686,66.047 167.662,66.088 167.621,66.113C167.58,66.145 167.523,66.162 167.457,66.162L165.363,66.162L165.363,65.196L166.557,65.196C166.664,65.196 166.754,65.204 166.811,65.213C166.868,65.229 166.893,65.27 166.876,65.327L167.04,65.327L167.04,64.46L166.893,64.46C166.893,64.517 166.868,64.558 166.827,64.566C166.786,64.583 166.713,64.591 166.623,64.591L165.363,64.591L165.363,63.773L167.359,63.773C167.531,63.773 167.613,63.822 167.613,63.928L167.76,63.928Z" style="fill:#fff;fill-rule:nonzero;"/>
            </g>
            <g transform="matrix(4.16667,0,0,1.55938,0,0)">
                <path d="M171.589,65.474L171.213,66.391L171.327,66.473C171.352,66.44 171.385,66.423 171.426,66.423C171.45,66.423 171.507,66.44 171.614,66.481C171.72,66.522 171.843,66.571 171.998,66.612C172.146,66.661 172.309,66.702 172.497,66.734C172.677,66.775 172.857,66.792 173.046,66.792C173.234,66.792 173.43,66.775 173.643,66.751C173.847,66.726 174.044,66.669 174.216,66.579C174.387,66.489 174.535,66.374 174.657,66.219C174.772,66.063 174.829,65.867 174.829,65.63C174.829,65.393 174.764,65.204 174.633,65.065C174.494,64.926 174.33,64.828 174.126,64.754C173.921,64.681 173.708,64.632 173.471,64.599C173.234,64.574 173.021,64.542 172.816,64.509C172.612,64.484 172.448,64.443 172.317,64.386C172.178,64.337 172.113,64.255 172.113,64.133C172.113,64.059 172.137,63.993 172.178,63.936C172.219,63.887 172.285,63.846 172.358,63.813C172.432,63.781 172.522,63.756 172.62,63.74C172.718,63.732 172.825,63.723 172.931,63.723C173.217,63.723 173.471,63.756 173.7,63.822C173.929,63.887 174.101,63.969 174.207,64.059C174.248,64.092 174.273,64.124 174.281,64.157C174.289,64.19 174.289,64.223 174.297,64.255L174.445,64.304L174.854,63.535L174.764,63.445C174.731,63.462 174.706,63.478 174.682,63.486C174.657,63.503 174.625,63.511 174.584,63.511C174.543,63.511 174.486,63.486 174.412,63.445C174.33,63.404 174.224,63.363 174.101,63.314C173.978,63.265 173.823,63.216 173.643,63.175C173.455,63.134 173.234,63.118 172.98,63.118C172.456,63.118 172.047,63.224 171.761,63.429C171.475,63.633 171.327,63.912 171.327,64.263C171.327,64.501 171.393,64.681 171.532,64.803C171.663,64.934 171.826,65.033 172.031,65.098C172.236,65.172 172.448,65.221 172.686,65.245C172.923,65.278 173.136,65.311 173.34,65.335C173.545,65.368 173.708,65.409 173.847,65.466C173.978,65.523 174.044,65.605 174.044,65.728C174.044,65.834 174.003,65.916 173.929,65.973C173.856,66.039 173.757,66.088 173.651,66.121C173.545,66.162 173.43,66.186 173.324,66.194C173.209,66.203 173.111,66.211 173.037,66.211C172.956,66.211 172.841,66.194 172.702,66.17C172.555,66.145 172.407,66.104 172.268,66.055C172.121,66.014 171.998,65.957 171.892,65.883C171.786,65.818 171.736,65.744 171.736,65.663C171.736,65.638 171.736,65.605 171.745,65.581C171.745,65.556 171.745,65.54 171.745,65.515L171.589,65.474Z" style="fill:#fff;fill-rule:nonzero;"/>
            </g>
            <g transform="matrix(4.16667,0,0,1.55938,0,0)">
                <path d="M179.419,66.767L180.475,66.767L180.475,66.62C180.376,66.62 180.327,66.579 180.327,66.497L180.327,63.773L181.391,63.773C181.432,63.773 181.473,63.781 181.514,63.805C181.555,63.83 181.571,63.863 181.571,63.912L181.718,63.912L181.718,62.971L181.571,62.971C181.571,63.044 181.555,63.102 181.514,63.126C181.473,63.151 181.432,63.167 181.391,63.167L178.478,63.167C178.437,63.167 178.396,63.151 178.356,63.126C178.315,63.102 178.298,63.044 178.298,62.971L178.151,62.971L178.151,63.912L178.298,63.912C178.298,63.863 178.315,63.83 178.356,63.805C178.396,63.781 178.437,63.773 178.478,63.773L179.542,63.773L179.542,66.497C179.542,66.538 179.526,66.571 179.501,66.587C179.476,66.612 179.444,66.62 179.419,66.62L179.419,66.767Z" style="fill:#fff;fill-rule:nonzero;"/>
            </g>
            <g transform="matrix(4.16667,0,0,1.55938,0,0)">
                <path d="M186.095,65.262L186.676,63.887L187.338,65.262L186.095,65.262ZM184.606,66.767L185.702,66.767L185.702,66.62C185.653,66.62 185.612,66.612 185.587,66.603C185.563,66.595 185.547,66.563 185.547,66.522C185.547,66.497 185.555,66.464 185.571,66.423C185.579,66.391 185.596,66.35 185.62,66.309L185.849,65.867L187.6,65.867L187.821,66.333C187.838,66.374 187.854,66.415 187.862,66.44C187.87,66.464 187.878,66.497 187.878,66.53C187.878,66.571 187.862,66.603 187.838,66.62C187.805,66.636 187.772,66.644 187.748,66.644L187.748,66.767L188.909,66.767L188.909,66.62C188.868,66.612 188.836,66.595 188.803,66.571C188.77,66.546 188.738,66.513 188.713,66.464L187.388,63.683C187.363,63.625 187.338,63.568 187.314,63.519C187.289,63.478 187.273,63.437 187.273,63.404C187.273,63.363 187.281,63.347 187.306,63.339C187.322,63.331 187.338,63.323 187.355,63.314L187.355,63.167L186.119,63.167L186.119,63.314C186.136,63.323 186.152,63.331 186.168,63.339C186.177,63.347 186.185,63.372 186.185,63.404C186.185,63.445 186.177,63.494 186.16,63.535C186.136,63.584 186.111,63.65 186.078,63.723L184.859,66.383C184.835,66.423 184.81,66.473 184.769,66.522C184.728,66.579 184.671,66.612 184.606,66.62L184.606,66.767Z" style="fill:#fff;fill-rule:nonzero;"/>
            </g>
            <g transform="matrix(4.16667,0,0,1.55938,0,0)">
                <path d="M193.066,66.767L194.121,66.767L194.121,66.62C194.023,66.62 193.974,66.579 193.974,66.497L193.974,63.773L195.038,63.773C195.078,63.773 195.119,63.781 195.16,63.805C195.201,63.83 195.218,63.863 195.218,63.912L195.365,63.912L195.365,62.971L195.218,62.971C195.218,63.044 195.201,63.102 195.16,63.126C195.119,63.151 195.078,63.167 195.038,63.167L192.125,63.167C192.084,63.167 192.043,63.151 192.002,63.126C191.961,63.102 191.945,63.044 191.945,62.971L191.797,62.971L191.797,63.912L191.945,63.912C191.945,63.863 191.961,63.83 192.002,63.805C192.043,63.781 192.084,63.773 192.125,63.773L193.188,63.773L193.188,66.497C193.188,66.538 193.172,66.571 193.147,66.587C193.123,66.612 193.09,66.62 193.066,66.62L193.066,66.767Z" style="fill:#fff;fill-rule:nonzero;"/>
            </g>
            <g transform="matrix(4.16667,0,0,1.55938,0,0)">
                <path d="M202.107,63.928L202.107,63.02L201.96,63.02C201.96,63.118 201.878,63.167 201.706,63.167L198.801,63.167L198.801,63.314C198.826,63.314 198.859,63.323 198.883,63.339C198.908,63.363 198.924,63.396 198.924,63.437L198.924,66.497C198.924,66.538 198.908,66.571 198.883,66.587C198.859,66.612 198.826,66.62 198.801,66.62L198.801,66.767L201.804,66.767C201.87,66.767 201.927,66.767 201.968,66.775C202.009,66.783 202.033,66.808 202.033,66.857L202.18,66.857L202.18,65.998L202.033,65.998C202.033,66.047 202.009,66.088 201.968,66.113C201.927,66.145 201.87,66.162 201.804,66.162L199.709,66.162L199.709,65.196L200.904,65.196C201.01,65.196 201.1,65.204 201.158,65.213C201.215,65.229 201.24,65.27 201.223,65.327L201.387,65.327L201.387,64.46L201.24,64.46C201.24,64.517 201.215,64.558 201.174,64.566C201.133,64.583 201.06,64.591 200.97,64.591L199.709,64.591L199.709,63.773L201.706,63.773C201.878,63.773 201.96,63.822 201.96,63.928L202.107,63.928Z" style="fill:#fff;fill-rule:nonzero;"/>
            </g>
        </g>
    </g>
</svg>
