<?xml version="1.0" encoding="UTF-8" standalone="no"?>
<!DOCTYPE svg PUBLIC "-//W3C//DTD SVG 1.1//EN" "http://www.w3.org/Graphics/SVG/1.1/DTD/svg11.dtd">
<svg width="100%" height="100%" viewBox="0 0 632 195" version="1.1" xmlns="http://www.w3.org/2000/svg" xmlns:xlink="http://www.w3.org/1999/xlink" xml:space="preserve" xmlns:serif="http://www.serif.com/" style="fill-rule:evenodd;clip-rule:evenodd;stroke-linejoin:round;stroke-miterlimit:2;">
    <g transform="matrix(1,0,0,1,-279.165,-1142.87)">
        <g id="Layer-1" serif:id="Layer 1" transform="matrix(4.16667,0,0,4.16667,0,0)">
            <g transform="matrix(1,0,0,1,94.9767,303.845)">
                <path d="M0,-12.413L-15.784,-12.413C-15.784,-16.222 -12.697,-19.309 -8.888,-19.309L6.896,-19.309C6.896,-15.5 3.808,-12.413 0,-12.413M-8.888,6.895C-12.697,6.895 -15.784,3.808 -15.784,0L0,0C3.808,0 6.896,3.087 6.896,6.895L-8.888,6.895ZM-19.1,-6.207C-19.1,-8.111 -17.556,-9.655 -15.652,-9.655L-5.746,-9.655C-3.842,-9.655 -2.298,-8.111 -2.298,-6.207C-2.298,-4.302 -3.842,-2.759 -5.746,-2.759L-15.652,-2.759C-17.556,-2.759 -19.1,-4.302 -19.1,-6.207M-4.628,-29.555C-17.523,-29.555 -27.977,-19.102 -27.977,-6.207C-27.977,6.688 -17.523,17.142 -4.628,17.142C8.267,17.142 18.72,6.688 18.72,-6.207C18.72,-19.102 8.267,-29.555 -4.628,-29.555" style="fill:rgb(35,31,32);fill-rule:nonzero;"/>
            </g>
            <g transform="matrix(1,0,0,1,134.303,300.026)">
                <path d="M0,-3.269C0.207,-5.267 -0.655,-6.471 -2.41,-6.471C-4.028,-6.471 -5.267,-5.163 -5.267,-3.098L0,-3.269ZM-5.164,-0.24C-4.992,1.447 -3.236,2.824 -0.758,2.824C2.135,2.824 4.372,1.55 4.372,1.55L4.957,6.025C4.957,6.025 2.41,7.643 -1.377,7.643C-6.782,7.643 -10.775,4.786 -10.775,-1.375C-10.775,-7.09 -7.367,-10.912 -2.203,-10.912C3.373,-10.912 5.404,-7.09 5.404,-3.305C5.404,-1.926 5.094,-0.24 5.094,-0.24L-5.164,-0.24Z" style="fill:rgb(35,31,32);fill-rule:nonzero;"/>
            </g>
            <g transform="matrix(1,0,0,1,148.249,286.256)">
                <path d="M0,15.768C0,16.697 0.344,17.075 0.895,17.075C1.687,17.075 2.376,16.766 2.376,16.766L2.616,20.346C2.616,20.346 1.102,21.413 -0.826,21.413C-5.233,21.413 -5.474,18.177 -5.474,15.871L-5.474,-5.645L0,-5.645L0,15.768Z" style="fill:rgb(35,31,32);fill-rule:nonzero;"/>
            </g>
            <g transform="matrix(1,0,0,1,162.089,296.962)">
                <path d="M0,2.859C-2.409,2.962 -4.337,3.41 -4.337,4.958C-4.337,5.716 -3.856,6.576 -2.65,6.576C-1.204,6.576 0,5.44 0,5.44L0,2.859ZM-8.813,-6.264C-8.813,-6.264 -5.784,-7.848 -2.169,-7.848C4.131,-7.848 5.542,-4.818 5.542,0.105L5.542,5.406C5.542,5.991 5.956,6.405 6.438,6.405C7.265,6.405 7.884,6.06 7.884,6.06L8.125,9.64C8.125,9.64 6.404,10.707 4.167,10.707C2.169,10.707 1.171,9.228 0.93,7.988C0.93,7.988 -1.067,10.707 -4.785,10.707C-7.229,10.707 -9.845,9.434 -9.845,5.75C-9.845,-0.136 -1.411,-0.068 0.07,-0.068C0.07,-2.098 -0.722,-3.2 -2.994,-3.2C-5.784,-3.2 -8.606,-1.789 -8.606,-1.789L-8.813,-6.264Z" style="fill:rgb(35,31,32);fill-rule:nonzero;"/>
            </g>
            <g transform="matrix(1,0,0,1,173.213,303.091)">
                <path d="M0,-13.633L0,-16.869L5.404,-18.211L5.404,-13.633L9.845,-13.633C9.845,-11.314 7.965,-9.433 5.645,-9.433L5.404,-9.433L5.404,-1.963C5.404,-0.896 5.921,-0.379 6.85,-0.379C8.055,-0.379 9.708,-0.93 9.708,-0.93L10.052,3.374C10.052,3.374 7.951,4.578 4.887,4.578C1.687,4.578 -0.07,2.582 -0.07,-0.999L-0.07,-9.433L-2.892,-9.433L-2.892,-10.741C-2.892,-12.338 -1.597,-13.633 0,-13.633" style="fill:rgb(35,31,32);fill-rule:nonzero;"/>
            </g>
            <g transform="matrix(1,0,0,1,201.787,289.802)">
                <path d="M0,17.523L-3.132,17.523L-4.097,16.043C-4.097,16.043 -7.229,17.867 -10.156,17.867C-14.838,17.867 -15.973,14.907 -15.973,11.739L-15.973,-0.344L-10.5,-0.344L-10.5,10.845C-10.5,12.634 -9.949,13.46 -8.399,13.46C-6.954,13.46 -5.542,12.531 -5.542,12.531L-5.542,-0.344L0,-0.344L0,17.523Z" style="fill:rgb(35,31,32);fill-rule:nonzero;"/>
            </g>
            <g transform="matrix(1,0,0,1,217.591,302.058)">
                <path d="M0,-7.333C0,-7.333 -2.72,-8.469 -5.508,-8.469C-6.54,-8.469 -7.332,-8.262 -7.332,-7.608C-7.332,-5.508 0.999,-6.541 0.999,-0.379C0.999,3.167 -1.996,5.611 -6.747,5.611C-10.361,5.611 -12.737,4.027 -12.737,4.027L-12.53,-0.482C-12.53,-0.482 -9.294,0.999 -6.471,0.999C-4.853,0.999 -4.268,0.517 -4.268,0.103C-4.268,-2.1 -12.771,-1.136 -12.771,-7.402C-12.771,-11.016 -9.329,-12.944 -5.679,-12.944C-2.031,-12.944 0.448,-11.705 0.448,-11.705L0,-7.333Z" style="fill:rgb(35,31,32);fill-rule:nonzero;"/>
            </g>
        </g>
    </g>
</svg>
