<?xml version="1.0" encoding="UTF-8" standalone="no"?><!DOCTYPE svg PUBLIC "-//W3C//DTD SVG 1.1//EN" "http://www.w3.org/Graphics/SVG/1.1/DTD/svg11.dtd"><svg width="100%" height="100%" viewBox="0 0 173 236" version="1.1" xmlns="http://www.w3.org/2000/svg" xmlns:xlink="http://www.w3.org/1999/xlink" xml:space="preserve" xmlns:serif="http://www.serif.com/" style="fill-rule:evenodd;clip-rule:evenodd;stroke-linejoin:round;stroke-miterlimit:2;"><g id="Artboard1"><g id="Senada-Logo" serif:id="Senada Logo"><g><path d="M113.77,128.414c2.374,3.972 3.568,8.531 3.568,13.68l-0,71.371c-0,6.149 -2.136,11.254 -6.396,15.315c-4.263,4.07 -9.866,6.1 -16.803,6.1c-6.946,0 -12.39,-1.885 -16.358,-5.651c-3.969,-3.766 -5.942,-8.624 -5.942,-14.57l-0,-62.452l12.782,-0l-0,70.221c-0,2.965 0.863,5.436 2.599,7.409c1.735,1.978 4.043,2.96 6.932,2.96c3.075,-0 5.581,-0.982 7.506,-2.965c1.924,-1.973 2.889,-4.448 2.889,-7.408l0,-80.057c0,-1.973 -0.132,-3.457 -0.396,-4.448c-0.269,-0.978 -0.925,-2.463 -1.987,-4.445l-28.246,-44.014c-1.392,-1.987 -2.079,-7.039 -2.079,-15.174l-0,-52.335c-0,-6.144 2.127,-11.249 6.391,-15.314c4.263,-4.061 9.862,-6.1 16.803,-6.1c6.545,-0 11.897,2.338 16.055,6.985c4.167,4.665 6.25,10.069 6.25,16.213l-0,52.635l-12.791,-0l0,-63.342c0,-6.937 -3.176,-10.404 -9.531,-10.404c-3.075,0 -5.585,0.987 -7.506,2.956c-1.925,1.973 -2.889,4.444 -2.889,7.404l-0,61.58c-0,2.369 0.048,4.387 0.141,6.065c0.088,1.673 0.577,3.303 1.467,4.88l27.541,42.905Z" style="fill:#fff;fill-rule:nonzero;"/></g><g><path d="M10.427,126.722c-0,2.683 -2.171,4.854 -4.854,4.854c-2.682,0 -4.854,-2.171 -4.854,-4.854c0,-2.678 2.172,-4.849 4.854,-4.849c2.683,-0 4.854,2.171 4.854,4.849Z" style="fill:#fff;fill-rule:nonzero;"/></g><g><path d="M172.197,126.722c0,2.683 -2.171,4.854 -4.854,4.854c-2.677,0 -4.853,-2.171 -4.853,-4.854c-0,-2.678 2.176,-4.849 4.853,-4.849c2.683,-0 4.854,2.171 4.854,4.849Z" style="fill:#fff;fill-rule:nonzero;"/></g></g></g></svg>